<svg xmlns="http://www.w3.org/2000/svg" viewBox="0 0 120 120" width="120" height="120">
  <rect width="120" height="120" rx="26" fill="#0f172a"/>
  <g transform="translate(58 56)">
    <rect x="-30" y="-24" width="46" height="34" rx="5" transform="rotate(-14)" fill="#4285F4"/>
    <rect x="-24" y="-22" width="46" height="34" rx="5" transform="rotate(7)" fill="#34A853"/>
    <rect x="-23" y="-21" width="46" height="34" rx="5" fill="#FFB81C"/>
    <circle cx="-9" cy="-10" r="3.4" fill="#0f172a"/>
    <path d="M -23 9 L -7 -3 L 3 5 L 11 -5 L 23 9 Z" fill="#0f172a"/>
  </g>
  <g transform="translate(88 86)">
    <circle r="13" fill="#0f172a"/>
    <path d="M0-13A13 13 0 0 1 11.3-6.5" fill="none" stroke="#4285F4" stroke-width="3" stroke-linecap="round"/>
    <path d="M11.3-6.5A13 13 0 0 1 11.3 6.5" fill="none" stroke="#EA4335" stroke-width="3" stroke-linecap="round"/>
    <path d="M11.3 6.5A13 13 0 0 1 0 13" fill="none" stroke="#FBBC05" stroke-width="3" stroke-linecap="round"/>
    <path d="M0 13A13 13 0 0 1-11.3-6.5" fill="none" stroke="#34A853" stroke-width="3" stroke-linecap="round"/>
    <path d="M -3 -4.5 L 5.5 0 L -3 4.5 Z" fill="#e2e8f0"/>
  </g>
</svg>
